<svg width="21" height="21" viewBox="0 0 21 21" fill="none" xmlns="http://www.w3.org/2000/svg">
<g id="Group">
<path id="Vector" d="M7.33333 13.6667L13.6667 7.33333M1 10.5C1 11.7476 1.24572 12.9829 1.72314 14.1355C2.20056 15.2881 2.90033 16.3354 3.78249 17.2175C4.66464 18.0997 5.71191 18.7994 6.86451 19.2769C8.0171 19.7543 9.25244 20 10.5 20C11.7476 20 12.9829 19.7543 14.1355 19.2769C15.2881 18.7994 16.3354 18.0997 17.2175 17.2175C18.0997 16.3354 18.7994 15.2881 19.2769 14.1355C19.7543 12.9829 20 11.7476 20 10.5C20 9.25244 19.7543 8.0171 19.2769 6.86451C18.7994 5.71191 18.0997 4.66464 17.2175 3.78249C16.3354 2.90033 15.2881 2.20056 14.1355 1.72314C12.9829 1.24572 11.7476 1 10.5 1C9.25244 1 8.0171 1.24572 6.86451 1.72314C5.71191 2.20056 4.66464 2.90033 3.78249 3.78249C2.90033 4.66464 2.20056 5.71191 1.72314 6.86451C1.24572 8.0171 1 9.25244 1 10.5Z" stroke="#71839B" stroke-width="2" stroke-linecap="round" stroke-linejoin="round"/>
<path id="Vector_2" d="M9.44434 7.33337H13.6666V11.5556" stroke="#71839B" stroke-width="2" stroke-linecap="round" stroke-linejoin="round"/>
</g>
</svg>
