<svg width="23" height="21" viewBox="0 0 23 21" fill="none" xmlns="http://www.w3.org/2000/svg">
<path id="Vector" d="M1.25 1.25V0C0.56 0 0 0.56 0 1.25H1.25ZM12.25 1.25H13.5C13.5 0.56 12.94 0 12.25 0V1.25ZM12.25 7.25V6C11.9185 6 11.6005 6.1317 11.3661 6.36612C11.1317 6.60054 11 6.91848 11 7.25H12.25ZM1.25 2.5H12.25V0H1.25V2.5ZM11 1.25V17.25H13.5V1.25H11ZM2.5 15.25V1.25H0V15.25H2.5ZM12.25 8.5H17.25V6H12.25V8.5ZM20 11.25V15.25H22.5V11.25H20ZM13.5 17.25V7.25H11V17.25H13.5ZM17.78 17.78C17.6394 17.9205 17.4488 17.9993 17.25 17.9993C17.0512 17.9993 16.8606 17.9205 16.72 17.78L14.952 19.548C15.5615 20.1574 16.3881 20.4998 17.25 20.4998C18.1119 20.4998 18.9385 20.1574 19.548 19.548L17.78 17.78ZM16.72 16.72C16.8606 16.5795 17.0512 16.5007 17.25 16.5007C17.4488 16.5007 17.6394 16.5795 17.78 16.72L19.548 14.952C18.9385 14.3426 18.1119 14.0002 17.25 14.0002C16.3881 14.0002 15.5615 14.3426 14.952 14.952L16.72 16.72ZM5.78 17.78C5.63937 17.9205 5.44875 17.9993 5.25 17.9993C5.05125 17.9993 4.86063 17.9205 4.72 17.78L2.952 19.548C3.56149 20.1574 4.38809 20.4998 5.25 20.4998C6.11191 20.4998 6.93852 20.1574 7.548 19.548L5.78 17.78ZM4.72 16.72C4.86063 16.5795 5.05125 16.5007 5.25 16.5007C5.44875 16.5007 5.63937 16.5795 5.78 16.72L7.548 14.952C6.93852 14.3426 6.11191 14.0002 5.25 14.0002C4.38809 14.0002 3.56149 14.3426 2.952 14.952L4.72 16.72ZM17.78 16.72C17.8501 16.7892 17.9057 16.8718 17.9435 16.9628C17.9812 17.0538 18.0005 17.1515 18 17.25H20.5C20.5005 16.8231 20.4167 16.4004 20.2533 16.006C20.0899 15.6116 19.8502 15.2534 19.548 14.952L17.78 16.72ZM18 17.25C18.0002 17.3485 17.9809 17.4461 17.9432 17.5371C17.9054 17.628 17.8499 17.7106 17.78 17.78L19.548 19.548C19.8501 19.2464 20.0896 18.8882 20.253 18.4939C20.4164 18.0995 20.5003 17.6768 20.5 17.25H18ZM15.25 16H12.25V18.5H15.25V16ZM16.72 17.78C16.6501 17.7106 16.5946 17.628 16.5568 17.5371C16.5191 17.4461 16.4998 17.3485 16.5 17.25H14C14 18.08 14.318 18.914 14.952 19.548L16.72 17.78ZM16.5 17.25C16.4995 17.1515 16.5188 17.0538 16.5565 16.9628C16.5943 16.8718 16.6499 16.7892 16.72 16.72L14.952 14.952C14.6499 15.2536 14.4104 15.6118 14.247 16.0061C14.0836 16.4005 13.9997 16.8232 14 17.25H16.5ZM4.72 17.78C4.65007 17.7106 4.59461 17.628 4.55685 17.5371C4.51908 17.4461 4.49976 17.3485 4.5 17.25H2C2 18.08 2.318 18.914 2.952 19.548L4.72 17.78ZM4.5 17.25C4.49953 17.1515 4.51875 17.0538 4.55653 16.9628C4.59431 16.8718 4.64989 16.7892 4.72 16.72L2.952 14.952C2.64994 15.2536 2.41036 15.6118 2.247 16.0061C2.08363 16.4005 1.9997 16.8232 2 17.25H4.5ZM12.25 16H7.25V18.5H12.25V16ZM5.78 16.72C5.85011 16.7892 5.90569 16.8718 5.94347 16.9628C5.98125 17.0538 6.00047 17.1515 6 17.25H8.5C8.5 16.42 8.182 15.586 7.548 14.952L5.78 16.72ZM6 17.25C6.00024 17.3485 5.98092 17.4461 5.94315 17.5371C5.90539 17.628 5.84993 17.7106 5.78 17.78L7.548 19.548C7.85006 19.2464 8.08964 18.8882 8.253 18.4939C8.41637 18.0995 8.5003 17.6768 8.5 17.25H6ZM20 15.25C20 15.4489 19.921 15.6397 19.7803 15.7803C19.6397 15.921 19.4489 16 19.25 16V18.5C20.112 18.5 20.9386 18.1576 21.5481 17.5481C22.1576 16.9386 22.5 16.112 22.5 15.25H20ZM17.25 8.5C17.9793 8.5 18.6788 8.78973 19.1945 9.30546C19.7103 9.82118 20 10.5207 20 11.25H22.5C22.5 8.35 20.15 6 17.25 6V8.5ZM0 15.25C0 16.112 0.34241 16.9386 0.951903 17.5481C1.5614 18.1576 2.38805 18.5 3.25 18.5V16C3.05109 16 2.86032 15.921 2.71967 15.7803C2.57902 15.6397 2.5 15.4489 2.5 15.25H0Z" fill="#71839B"/>
</svg>
