<svg width="20" height="20" viewBox="0 0 20 20" fill="none" xmlns="http://www.w3.org/2000/svg">
<g id="u:sign-out-alt">
<path id="Vector" d="M10.4917 10.8333L8.57508 12.7417C8.49697 12.8191 8.43498 12.9113 8.39267 13.0129C8.35037 13.1144 8.32858 13.2233 8.32858 13.3333C8.32858 13.4434 8.35037 13.5523 8.39267 13.6538C8.43498 13.7554 8.49697 13.8475 8.57508 13.925C8.65255 14.0031 8.74472 14.0651 8.84627 14.1074C8.94782 14.1497 9.05674 14.1715 9.16675 14.1715C9.27676 14.1715 9.38568 14.1497 9.48723 14.1074C9.58878 14.0651 9.68095 14.0031 9.75842 13.925L13.0917 10.5917C13.1676 10.5124 13.2271 10.419 13.2667 10.3167C13.3501 10.1138 13.3501 9.88623 13.2667 9.68334C13.2271 9.58105 13.1676 9.4876 13.0917 9.40835L9.75842 6.07501C9.68072 5.99731 9.58847 5.93568 9.48696 5.89363C9.38544 5.85158 9.27663 5.82994 9.16675 5.82994C9.05687 5.82994 8.94806 5.85158 8.84654 5.89363C8.74502 5.93568 8.65278 5.99731 8.57508 6.07501C8.49738 6.15271 8.43575 6.24495 8.3937 6.34647C8.35165 6.44799 8.33001 6.5568 8.33001 6.66668C8.33001 6.77656 8.35165 6.88537 8.3937 6.98689C8.43575 7.0884 8.49738 7.18065 8.57508 7.25835L10.4917 9.16668H2.50008C2.27907 9.16668 2.06711 9.25448 1.91083 9.41076C1.75455 9.56704 1.66675 9.779 1.66675 10C1.66675 10.221 1.75455 10.433 1.91083 10.5893C2.06711 10.7455 2.27907 10.8333 2.50008 10.8333H10.4917ZM10.0001 1.66668C8.44266 1.65973 6.91445 2.08936 5.5888 2.90684C4.26316 3.72432 3.19313 4.89694 2.50008 6.29168C2.40063 6.49059 2.38426 6.72087 2.45459 6.93184C2.52491 7.14282 2.67617 7.31722 2.87508 7.41668C3.07399 7.51613 3.30427 7.5325 3.51525 7.46217C3.72622 7.39185 3.90063 7.24059 4.00008 7.04168C4.52691 5.97778 5.32828 5.07386 6.32137 4.42333C7.31447 3.77281 8.46327 3.39928 9.64904 3.34134C10.8348 3.2834 12.0146 3.54316 13.0663 4.09377C14.1181 4.64438 15.0038 5.46587 15.6318 6.47334C16.2599 7.48081 16.6075 8.63772 16.6387 9.8245C16.67 11.0113 16.3838 12.1849 15.8097 13.224C15.2356 14.2632 14.3944 15.1301 13.373 15.7354C12.3517 16.3406 11.1873 16.6621 10.0001 16.6667C8.75748 16.6721 7.53854 16.327 6.48316 15.6711C5.42777 15.0151 4.57871 14.0749 4.03341 12.9583C3.93396 12.7594 3.75956 12.6082 3.54858 12.5379C3.3376 12.4675 3.10733 12.4839 2.90841 12.5833C2.7095 12.6828 2.55825 12.8572 2.48792 13.0682C2.41759 13.2792 2.43396 13.5094 2.53341 13.7083C3.1941 15.0379 4.19802 16.1669 5.44131 16.9784C6.6846 17.7899 8.12212 18.2545 9.60518 18.3242C11.0882 18.3938 12.563 18.066 13.8769 17.3746C15.1908 16.6832 16.2961 15.6533 17.0785 14.3915C17.8609 13.1297 18.292 11.6818 18.3272 10.1975C18.3624 8.71323 18.0004 7.2465 17.2786 5.94904C16.5569 4.65157 15.5016 3.57048 14.222 2.8176C12.9423 2.06472 11.4848 1.66738 10.0001 1.66668Z" fill="#71839B"/>
</g>
</svg>
